<?xml version="1.0" encoding="UTF-8" standalone="no"?>
<svg
   width="1024"
   height="1024"
   viewBox="0 0 960 959.99998"
   version="1.1"
   id="svg961"
   sodipodi:docname="mastodon.svg"
   inkscape:version="1.1.2 (0a00cf5339, 2022-02-04, custom)"
   xmlns:inkscape="http://www.inkscape.org/namespaces/inkscape"
   xmlns:sodipodi="http://sodipodi.sourceforge.net/DTD/sodipodi-0.dtd"
   xmlns="http://www.w3.org/2000/svg"
   xmlns:svg="http://www.w3.org/2000/svg">
  <defs
     id="defs965" />
  <sodipodi:namedview
     id="namedview963"
     pagecolor="#505050"
     bordercolor="#ffffff"
     borderopacity="1"
     inkscape:pageshadow="0"
     inkscape:pageopacity="0"
     inkscape:pagecheckerboard="1"
     inkscape:document-units="mm"
     showgrid="false"
     inkscape:snap-bbox="true"
     inkscape:bbox-paths="true"
     inkscape:bbox-nodes="true"
     inkscape:snap-bbox-edge-midpoints="true"
     inkscape:snap-bbox-midpoints="true"
     inkscape:snap-page="true"
     inkscape:object-paths="true"
     inkscape:snap-intersection-paths="true"
     inkscape:snap-smooth-nodes="true"
     inkscape:snap-midpoints="true"
     showguides="true"
     inkscape:guide-bbox="true"
     inkscape:snap-nodes="true"
     inkscape:snap-global="true"
     inkscape:zoom="0.82696749"
     inkscape:cx="197.71031"
     inkscape:cy="517.5536"
     inkscape:window-width="1920"
     inkscape:window-height="1080"
     inkscape:window-x="0"
     inkscape:window-y="0"
     inkscape:window-maximized="1"
     inkscape:current-layer="svg961"
     units="px"
     width="1024px"
     inkscape:snap-object-midpoints="true" />
  <path
     fill="#2b90d9"
     d="m 908.67221,575.51027 c -13.16324,67.71956 -117.89504,141.83196 -238.17963,156.19515 -62.72322,7.48417 -124.47924,14.36319 -190.33164,11.34262 -107.69547,-4.93427 -192.67465,-25.70581 -192.67465,-25.70581 0,10.48404 0.64652,20.46638 1.93957,29.80219 14.00114,106.28345 105.38867,112.65042 191.95572,115.61926 87.3739,2.98953 165.17408,-21.54219 165.17408,-21.54219 l 3.5895,78.98978 c 0,0 -61.11467,32.81758 -169.98422,38.85353 -60.03368,3.29987 -134.57537,-1.51028 -221.39586,-24.49034 C 70.466109,884.73517 38.082989,684.01777 33.128029,480.35738 31.617739,419.88923 32.548739,362.87094 32.548739,315.1833 32.548739,106.92999 168.99645,45.887727 168.99645,45.887727 237.797,14.290787 355.85238,1.0034068 478.58342,6.7713582e-6 h 3.01539 C 604.32985,1.0034068 722.46281,14.290787 791.25819,45.887727 c 0,0 136.44253,61.042263 136.44253,269.295573 0,0 1.712,153.65042 -19.02851,260.32697"
     id="path957"
     style="fill:#ffffff;fill-opacity:1;stroke-width:4.13776" />
  <path
     id="path3003"
     style="fill:#f8c23f;stroke:#ca9f75;stroke-width:0;stroke-linejoin:bevel;paint-order:stroke markers fill;stop-color:#000000"
     d="m 683.37884,371.86465 c 0,112.32301 -91.05581,203.37882 -203.37882,203.37882 -112.32302,0 -203.37881,-91.05581 -203.37881,-203.37882 0,-112.32301 91.0558,-203.3788 203.37881,-203.3788 89.50887,-1e-5 165.51243,57.82321 192.69422,138.15326 6.92814,20.47463 10.6846,42.4114 10.6846,65.22554 z"
     sodipodi:nodetypes="ssssss" />
  <path
     d="m 652.18996,371.86465 c 0,33.62139 -201.01252,-172.18994 -172.18994,-172.18994 108.2792,0 171.61419,80.23665 172.18994,172.18994 z"
     style="fill:#ffde8d;fill-opacity:1;stroke:#ca9f75;stroke-width:0;stroke-linejoin:bevel;paint-order:stroke markers fill;stop-color:#000000"
     id="path14342"
     sodipodi:nodetypes="ccc" />
</svg>
