<?xml version="1.0" encoding="UTF-8" standalone="no"?>
<!-- Created with Inkscape (http://www.inkscape.org/) -->

<svg
   version="1.1"
   id="svg1620"
   xml:space="preserve"
   width="682.66669"
   height="481.54147"
   viewBox="0 0 682.66669 481.54148"
   sodipodi:docname="yt.svg"
   inkscape:version="1.1.1 (3bf5ae0d25, 2021-09-20, custom)"
   xmlns:inkscape="http://www.inkscape.org/namespaces/inkscape"
   xmlns:sodipodi="http://sodipodi.sourceforge.net/DTD/sodipodi-0.dtd"
   xmlns="http://www.w3.org/2000/svg"
   xmlns:svg="http://www.w3.org/2000/svg"><defs
     id="defs1624" /><sodipodi:namedview
     id="namedview1622"
     pagecolor="#505050"
     bordercolor="#ffffff"
     borderopacity="1"
     inkscape:pageshadow="0"
     inkscape:pageopacity="0"
     inkscape:pagecheckerboard="1"
     showgrid="false"
     showguides="true"
     inkscape:guide-bbox="true"
     inkscape:snap-bbox="true"
     inkscape:object-paths="true"
     inkscape:snap-smooth-nodes="true"
     inkscape:snap-object-midpoints="true"
     inkscape:snap-global="false"
     inkscape:bbox-paths="true"
     inkscape:bbox-nodes="true"
     inkscape:snap-bbox-edge-midpoints="true"
     inkscape:snap-bbox-midpoints="true"
     inkscape:snap-page="true"
     inkscape:zoom="0.7071068"
     inkscape:cx="321.73358"
     inkscape:cy="453.96254"
     inkscape:window-width="1880"
     inkscape:window-height="999"
     inkscape:window-x="0"
     inkscape:window-y="0"
     inkscape:window-maximized="1"
     inkscape:current-layer="g1626"
     fit-margin-top="0"
     fit-margin-left="0"
     fit-margin-right="0"
     fit-margin-bottom="0" /><g
     id="g1626"
     inkscape:groupmode="layer"
     inkscape:label="ink_ext_XXXXXX"
     transform="matrix(1.3333333,0,0,-1.3333333,3.0303199e-6,682.66666)"><g
       id="g1628"
       transform="matrix(0.15552393,0,0,0.15552393,-149.39349,-69.620608)"><path
         d="m 2266.23,2154.32 v 923.28 l 885.98,-466.31 z m 1939.81,1081.82 c 0,0 -27.97,223.83 -130.56,326.41 -121.23,130.57 -261.12,130.57 -326.41,139.89 -456.98,37.31 -1147.11,37.31 -1147.11,37.31 v 0 c 0,0 -690.12,0 -1147.1,-37.31 -65.28,-9.32 -205.17,-9.32 -326.41,-139.89 -102.59,-102.58 -130.563,-326.41 -130.563,-326.41 0,0 -37.305,-261.13 -37.305,-531.58 v -251.81 c 0,-261.13 37.305,-531.59 37.305,-531.59 0,0 27.973,-223.82 130.563,-326.4 121.24,-130.57 289.11,-130.57 363.72,-139.9 261.13,-27.98 1119.12,-37.3 1119.12,-37.3 0,0 690.14,0 1147.11,37.3 65.28,9.33 205.17,9.33 326.4,139.9 102.59,102.58 130.57,326.4 130.57,326.4 0,0 37.31,261.13 37.31,531.59 v 251.81 c -9.33,261.12 -46.64,531.58 -46.64,531.58"
         style="fill:#ffffff;fill-opacity:1;fill-rule:nonzero;stroke:none"
         id="path1632"
         sodipodi:nodetypes="ccccccccccccsscccccccscc" /><path
         d="m 4206.04,3236.14 c 0,0 -27.97,223.83 -130.56,326.41 -121.23,130.57 -261.12,130.57 -326.41,139.89 -456.98,37.31 -1147.11,37.31 -1147.11,37.31 v 0 c 0,0 -690.12,0 -1147.1,-37.31 -65.28,-9.32 -205.17,-9.32 -326.41,-139.89 -102.59,-102.58 -130.563,-326.41 -130.563,-326.41 0,0 -37.305,-261.13 -37.305,-531.58 v -251.81 c 0,-261.13 37.305,-531.59 37.305,-531.59 0,0 27.973,-223.82 130.563,-326.4 121.24,-130.57 289.11,-130.57 363.72,-139.9 261.13,-27.98 1119.12,-37.3 1119.12,-37.3 0,0 690.14,0 1147.11,37.3 65.28,9.33 205.17,9.33 326.4,139.9 102.59,102.58 130.57,326.4 130.57,326.4 0,0 37.31,261.13 37.31,531.59 v 251.81 c -9.33,261.12 -46.64,531.58 -46.64,531.58"
         style="fill:#ffffff;fill-opacity:1;fill-rule:nonzero;stroke:none"
         id="path1819"
         sodipodi:nodetypes="ccccccccsscccccccscc" /></g><path
       d="m 203.0595,265.42771 c -12.62757,7.29053 -12.62595,136.30256 0,143.59215 12.62594,7.2896 137.85154,-57.94406 137.79111,-72.52238 -0.0605,-14.57831 -125.16355,-78.3603 -137.79111,-71.06977 z"
       style="fill:#f8c23f;fill-opacity:1;fill-rule:nonzero;stroke:none;stroke-width:1.16643"
       id="path1737"
       sodipodi:nodetypes="zzzz" /><path
       d="m 246.51389,285.73132 c -4.11941,2.71463 63.53853,22.81924 63.73815,50.69588 0.20194,28.201 -67.55263,49.77197 -63.73815,52.28562 7.93338,5.22798 86.6173,-41.55633 86.57934,-52.01162 -0.0379,-10.45529 -78.64497,-56.19851 -86.57934,-50.96988 z"
       style="fill:#ffde8d;fill-opacity:1;fill-rule:nonzero;stroke:none;stroke-width:0.58726"
       id="path6614"
       sodipodi:nodetypes="sasss" /></g></svg>
